<?xml version="1.0" encoding="UTF-8"?>
<svg id="Layer_2" data-name="Layer 2" xmlns="http://www.w3.org/2000/svg" viewBox="0 0 1842 558.32">
  <g id="Layer_1-2" data-name="Layer 1">
    <g>
      <path d="M728.3,202.22V40.3c0-.24,4.05-.71,4.73-.76,10.35-.76,31.82-1.15,41.81.02,7.38.86,3.97,7.44,3.95,12.1-.23,81.68,2.64,163.83,0,245.46-.07,2.3,1.9,6.53-.66,8.06-.46.27-9.23,1.12-10.63,1.15-2.26.05-4.27-.85-6.59-.86-4.36-.02-10.03,1.86-14.34-.99-45.34-56.18-88.08-114.49-133.34-170.73-1.52-1.89-3.07-4.22-5.1-5.53v175.48c0,.28-1.67,2.56-1.83,2.56h-46.89c-.08,0-1.1-1.02-1.1-1.1V40.3c0-.2,3.28-.71,3.99-.77,8.22-.65,23.43-.74,31.57,0,2.02.19,3.93.39,5.52,1.81l126.37,160.11,2.53.76Z"/>
      <path d="M824.07,39.71c34.62.8,70.14-1.56,104.66-.18,77.04,3.09,131.48,56.37,130.82,134.48-.35,41.02-15.56,78.65-48.07,104.39-53.73,42.53-122.73,23.76-186.13,27.9-3.35.08-3.75-1.13-4.03-4.03-1.46-15.05-.1-35.71,0-51.37.07-10,.75-19.97.8-29.97.29-59.96-.59-120.02.33-179.92l1.62-1.31ZM873.11,88.03c-1.18.39-1.96,7.97-2,9.79-.96,51.1.93,103.61.03,155.36,0,2.17.57,4.88,3.29,4.77,37.73-1.71,75.48,7.7,106.66-18.72,38.33-32.48,38.01-100.63-.4-132.97-31.16-26.23-69.99-16.69-107.58-18.24Z"/>
      <path d="M351.69,257.91l32.58-70.33,2,2.41c14.65,37.58,35.18,73.14,49.8,110.66.61,1.57,2.29,4.13.13,4.78l-195.5.84c-1.15-.11-2.58-1.19-2.46-2.43L356.5,41.07c1.09-1.42,2.7-1.39,4.32-1.54,11.45-1.05,36.35-1.16,47.7,0,.86.09,1.74-.06,2.53.4l119.39,264.53c-.08.92-7.62,1.86-9.13,1.88-11.84.19-24.04.11-35.89,0-2.55-.02-5.5-1.27-8.32-.91l-92.12-204.28c-2.59-.82-5.94,8.16-7.04,10.47-22.55,47.53-42.06,96.6-64.76,144.07-.75.74.33,2.23.78,2.23h37.73Z"/>
      <path d="M1790.28,174.81c19.89,19.74,23.13,50.01,16.92,76.51-16.68,71.11-141.1,75.55-190.37,40.16-9.88-7.1-29.44-27.67-32.4-39.41-.51-2.01-.74-4.36.93-5.91l34.46-18.09c6.21-3.63,7.18,3.61,10.13,7.8,22.47,31.81,75.35,42.1,109.24,24.38,35.74-18.69,24.83-56.86-11.94-66-46.28-11.51-114.75-5.99-130.5-65.13-15.35-57.64,32.62-91.77,84.43-96.13,43.06-3.63,88.57,2.86,114.94,40.37,2.54,3.61,8.66,10.05,3.17,13.27-10.67,3.47-23.86,12.84-34.21,15.62-4.73,1.27-6.33-3.23-9.53-5.9-12.03-10.01-23.04-16.7-38.69-19.92-23.34-4.8-69.68-.43-72.59,30.28-3.47,36.63,57.7,35.5,82.1,40.07,22.86,4.29,47.08,11.33,63.91,28.04Z"/>
      <path d="M1565.77,305.53c-1.01,1.14-6.14-.11-7.69-.06-13.15.43-27.98,1.28-41.03.86-1.95-.06-10.69-.87-11.77-1.49l-114.52-130.94-.11-1.72c20.83-.65,41.85.84,62.67.03,19.12-.75,35.5-3.95,44.43-22.98,13.12-27.95-4.46-62.56-37.14-61.3l-128.82-.13c-1.72-.58-1.85-3.07-1.99-4.61-.93-10.4-.76-29.1,0-39.63.1-1.35.23-2.68.87-3.89,34.01.3,68.12-.74,102.13-.14,34.21.6,59.91-.46,88.19,21.73,46.82,36.75,41.59,121.79-16.58,144.46-4.03,1.57-12.06,3.11-15.05,4.73-1.02.55-1.93,1.08-2.02,2.4,11.02,13.14,22.12,26.25,33.35,39.21,13.11,15.12,27.19,29.67,39.92,45.07,1.06,1.28,6.34,7.07,5.15,8.4Z"/>
      <path d="M231.17,260.11c1.93.54.39,3.24-.02,4.38-4.73,12.84-12.79,25.86-17.52,38.9l-1.63,2.03-175.99.02c.32-2.58-.88-5.25-.9-7.6-.34-64.71.78-129.44.86-194.16.02-19.17-1.62-38.76,0-57.9.08-.97-1.13-6.22,1.04-6.22h46.89c.08,0,1.1,1.02,1.1,1.1v217.61c0,.13,1.7,1.83,1.83,1.83h144.34Z"/>
      <path d="M1799.33,351.14c1.67,1.67,1.36,7.13-1.31,8.23l-1757.39.42c-6.73.52-7.45-9.56-.74-9.6h1754.88c1.3.06,3.63.01,4.56.95Z"/>
      <path d="M1093.55,89.39c-3.03-.92-.99-7.1-1.04-9.16-.26-11.52-.88-22.91,0-34.45.4-5.2-2.49-5.75,5.41-6.25h189.11c2.33-.19,4.01.83,4.02,3.3-1.4,13.43,1.75,30.3,0,43.3-.13.97-.94,3.26-1.87,3.26h-195.63Z"/>
      <path d="M1290.1,257.35c.8.69.85,2.74.95,3.82.96,10.68.75,29.53,0,40.36-.06.93-.2,3.75-1.28,4.01l-197.36-.47c.44-2.74-.73-5.28-.75-7.97-.08-9.7.85-19.57.86-29.31,0-3.11-2.73-10.22,1.92-11.18l190.38-.22c1.26.08,4.45.23,5.28.94Z"/>
      <path d="M1285.88,195.26c-.07.25-1.14,1.29-1.48,1.45l-189.97.19c-4.58-.94-1.9-7.41-1.92-10.44-.06-9.98-.96-20.06-.85-30.03.01-1.08.88-6.24,1.89-6.24h191.23c.08,0,1.1,1.02,1.1,1.1v43.96Z"/>
      <path d="M35.9,391.26c1-1.57,32.48-.9,37.03-.77,11.85.33,29.7.15,39.17,7.72,10.47,8.38,13.18,22.38,6.15,34.01-1.54,2.55-9.99,9.98-9.82,10.68.14.57,8.28,4.9,9.87,6.25,19.22,16.3,4.83,51.27-20.5,51.27h-60.81c-.08,0-1.1-1.02-1.1-1.1v-108.07ZM59.81,409.79c-1.96.2-2.49,1.31-2.7,3.04-.31,2.55-.05,19.65.9,21.17.31.5.39.88,1.08,1.12,2.03.69,19.28.34,22.64.13,7.89-.49,17.26-1.61,17.95-11.36,1.33-18.85-23.44-14.41-35.57-13.52-1.54.11-3.1-.7-4.3-.58ZM57.15,456.1c-1.06,5.82,0,18.26,0,24.91,0,.08,1.02,1.1,1.1,1.1h33.7c3.89,0,10.29-4.98,11.7-8.81,4.74-12.88-6.36-19.01-17.54-19.79-3.74-.26-25.96-.39-27.74.71-.41.25-1.16,1.47-1.23,1.89Z"/>
      <path d="M1131.28,500.43h-24.55c-8.03-10.47-14.44-22.79-22.48-33.2-4.37-5.65-8.75-11.15-16.41-12.16-1.68-.22-11.29-.5-11.29,1.77v43.6h-21.98c.56-3.4-.73-6.65-.8-9.89-.58-29.19.75-58.68.86-87.92,0-2.38-2.11-9.26.65-11.02,3.12-1.99,9.8-.18,12.85-.28,14.7-.46,48.93-2.28,61.45,3.69,18.6,8.87,19.49,42.58.61,52.46-1.97,1.03-12.55,4.29-12.6,4.97-.06.9,10.7,11.17,12.42,13.21,8.6,10.22,16.3,22.38,21.27,34.78ZM1057.28,437.42c1.36.89,28.36,0,32.61,0,2.85,0,8.72-4.15,10.2-6.65,5.93-10.03-1.94-20.19-12.52-20.91-6.3-.43-15.41-.45-21.85-.34-1.52.03-9.16.99-9.16,1.9v24.18c0,.1.65,1.78.73,1.83Z"/>
      <path d="M1564.31,393.09c.19-.7,2.34-2.36,3.31-2.55,2.28-.44,14.42-.29,16.43.38.74.25,2.34,1.54,2.96,2.17l41.56,68.31,1.68.92v-69.24c0-3.59,14.29-2.9,17.26-2.61,2.04.2,3.52.15,3.97,2.63.34,1.87.75,7.39.81,9.51.9,28.68-.66,59.09-.86,87.92,0,1.04,1.3,9.89.06,9.89h-22.35c-.95,0-9.23-13.89-10.48-15.89-9.87-15.78-18.88-32.27-29.14-47.79-.48-.72-4-6.44-4.69-5.92l-.74,69.6h-19.78v-107.34Z"/>
      <path d="M1717.54,500.33v-108.96c1.22-.64,2.54-.77,3.9-.87,13.78-1,45.6-1.37,57.94,2.94,27.88,9.73,31.4,37.59,29.68,63.44-1.62,24.32-18.99,42.69-43.59,44.33-12.37.83-31.7.89-44.03,0-1.36-.1-2.68-.24-3.9-.87ZM1740.32,410.46l.21,70.91c1.37,2.39,3.56.52,5.85.67,4.62.3,10.19.9,14.78.52,26.75-2.24,26.93-26.22,25.18-47.74-1.31-16.13-12.44-24.93-28.24-25.32-2.11-.05-3.95.87-5.86.86-3.02-.01-9.24-1.8-11.92.09Z"/>
      <path d="M759.66,389.28c46.56-4.14,64.01,27.19,60.21,69.74-5.01,56.25-94.88,59.44-104.58,4.22-6.1-34.7,4.67-70.43,44.36-73.96ZM761.08,407.55c-33.46,5.64-33.84,73.24,2.76,76.75,46.8,4.49,45.05-84.81-2.76-76.75Z"/>
      <path d="M189.21,391.44c1.06-1.22,18.89-1.42,20.35-.56,1.25.74,1.37,3.03,1.49,4.37,1.96,21.67-1.71,46.32-.06,68.2.86,11.5,4.82,19.22,17.21,20.15,17.79,1.34,24.82-3.62,26.07-21.62,1.58-22.75-1.54-47.09.33-70.01.68-1.22,1.65-1.33,2.9-1.5,3.04-.39,12.43-.4,15.45,0,3.92.52,3.79,4.35,4.03,7.69,1.19,16.84.85,40.92,0,57.94-1.24,24.86-7.03,42.59-34.21,46.39-18.7,2.61-41.66-.22-49.7-19.69-6.63-16.03-6.24-68.21-4.8-86.83.08-1.07.36-3.89.94-4.55Z"/>
      <path d="M1487.01,500.43c-.98-.21-2.17-1.5-2.73-2.4-3.02-4.81-5.43-17.39-8.31-21-2.68-3.36-18.08-.76-22.63-.75-4.88.01-15.77-1.75-19.67-.61-4.47,1.3-8.45,22.71-12.25,24.38-.9.4-6.87,1-8.42,1.1-2.41.16-12.84.77-13.45-1.9l41.12-105.97c.44-.84,1.16-1.99,2.02-2.37,1.67-.75,16.7-.67,19.42-.38,1.18.13,2.57.19,3.32,1.25l42.44,106.87c.15.61-.77,1.78-1.09,1.78-4.97,0-15.68.88-19.78,0ZM1440.12,457.2h26.38c.44,0,1.03-1.05.99-1.68-.08-1.31-2.2-6.41-2.81-8.22-2.75-8.27-6.39-18.04-9.95-25.97-.41-.92-.8-3.41-2.15-2.97l-13.45,37.16c-.27.6.62,1.58.99,1.68Z"/>
      <path d="M882.68,390.68c1.62-.48,15.47-.49,17.41-.13,1.2.23,2.04.76,2.44,1.96l.12,70.22c.83,11.17,4.07,19.71,16.48,20.88,17.36,1.64,25.59-3.05,26.8-20.88,1.57-23.02-1.53-47.57.33-70.74.68-1.22,1.65-1.33,2.9-1.5,3.04-.39,12.44-.4,15.45,0,3.51.47,3.74,3.16,4.02,6.23,1.64,17.96,1.54,65.29-3.31,81.74-9.92,33.68-71.56,34.15-82.1,0-5.08-16.46-4.28-57.62-3.31-75.88.11-2.01.53-8.78.91-10.08.25-.87.97-1.58,1.83-1.83Z"/>
      <path d="M585.79,390.53c1.86.4,3.31,3.03,4.33,4.46,8.08,11.38,14.13,26.35,22.07,38.06l2.88-1.53,23.17-39.11c1.7-1.34,3.28-1.72,5.4-1.93,3.44-.33,14.55-.53,17.62.04,3.3.61,1.51,4.13.22,6.08l-36.88,57.64c-1.52,6.17,1.24,42.79-1.25,45.28-1.44,1.44-21.08,1.72-21.08-.93v-43.23c0-3.54-33.15-51.08-37.49-59.95-.41-.83-2.53-4.89-.24-4.89,5.32,0,16.85-.94,21.25,0Z"/>
      <path d="M393.46,498.6c-.86,2.84-20.26,2.39-21.66.41-.75-1.07-.37-22.64-.35-26.08.02-4.38.86-10.14.7-14.55-.26-7.15-30.44-49.63-36.14-59.85-1.36-2.43-5.43-7.14-.77-7.98,4.03-.73,19.72-.56,22.72,2.15,3.89,4.28,22.48,41.02,24.89,41.04s20.97-37.78,25.63-41.77c2.68-1.93,17.59-1.97,21.3-1.48,4.49.59,3.09,2.63,1.65,5.39-4.47,8.52-37.95,56.67-37.95,60.22v42.5Z"/>
      <path d="M1351.09,500.43h-75.83c-.08,0-1.1-1.02-1.1-1.1v-106.24c0-.08,1.02-1.1,1.1-1.1h19.05c.13,0,1.83,1.7,1.83,1.83v87.19c0,.08,1.02,1.1,1.1,1.1h52.75c2.48,0,1.23,16,1.1,18.32Z"/>
    </g>
  </g>
</svg>